<?xml version="1.0" standalone="no"?>
<!DOCTYPE svg PUBLIC "-//W3C//DTD SVG 20010904//EN"
 "http://www.w3.org/TR/2001/REC-SVG-20010904/DTD/svg10.dtd">
<svg version="1.0" xmlns="http://www.w3.org/2000/svg"
 width="700.000000pt" height="700.000000pt" viewBox="0 0 700.000000 700.000000"
 preserveAspectRatio="xMidYMid meet">
<metadata>
Created by potrace 1.11, written by Peter Selinger 2001-2013
</metadata>
<g transform="translate(0.000000,700.000000) scale(0.100000,-0.100000)"
fill="#000000" stroke="none">
<path d="M1266 6989 c-319 -37 -605 -178 -842 -414 -211 -210 -340 -453 -401
-752 -17 -83 -18 -208 -18 -2273 0 -2054 1 -2190 18 -2275 59 -301 189 -546
402 -760 205 -206 469 -345 767 -402 88 -17 219 -18 2308 -18 2089 0 2220 1
2308 18 298 57 562 196 767 402 213 214 346 465 401 760 18 96 19 191 19 2280
0 2060 -1 2185 -18 2268 -61 298 -191 543 -401 752 -207 207 -432 330 -724
397 l-97 22 -2210 2 c-1215 1 -2241 -2 -2279 -7z m2864 -1300 c55 -25 95 -62
123 -114 l22 -40 3 -1197 2 -1198 310 0 c343 0 366 -3 394 -59 9 -16 16 -48
16 -71 0 -38 -7 -48 -92 -138 -287 -302 -1337 -1366 -1360 -1378 -39 -20 -80
-17 -117 9 -38 27 -1398 1409 -1423 1446 -25 37 -23 102 4 136 41 53 59 55
413 55 l325 0 2 1198 3 1197 22 40 c28 52 68 89 123 114 44 20 63 21 615 21
552 0 571 -1 615 -21z"/>
</g>
</svg>
